<svg xmlns="http://www.w3.org/2000/svg" width="34" height="33" viewBox="0 0 34 33" fill="none"><path d="M32.748 11.6347C33.8068 14.8616 33.8016 18.3359 32.7332 21.5598C31.6648 24.7836 29.588 27.5917 26.8002 29.5817C24.0125 31.5717 20.6569 32.6415 17.2141 32.638C13.7713 32.6344 10.418 31.5575 7.6345 29.5617C4.85103 27.5659 2.78023 24.7535 1.71875 21.5274C0.657266 18.3013 0.659566 14.8271 1.72531 11.6024C2.79106 8.37764 4.86557 5.56791 7.65167 3.57566C10.4378 1.58342 13.7925 0.510892 17.2353 0.511719C20.6822 0.514316 24.0397 1.59197 26.8265 3.59016C29.6133 5.58835 31.6862 8.40446 32.748 11.6347ZM17.2353 1.96538C14.0997 1.96953 11.046 2.95119 8.51151 4.76973C5.97705 6.58826 4.09195 9.15034 3.1263 12.0889C2.16066 15.0274 2.16402 18.1917 3.1359 21.1282C4.10778 24.0648 5.99831 26.623 8.53663 28.4363C11.0749 30.2496 14.1308 31.2249 17.2664 31.2226C20.4019 31.2203 23.4563 30.2405 25.9919 28.4234C28.5274 26.6064 30.4141 24.0454 31.3815 21.1075C32.3489 18.1695 32.3475 15.0052 31.3774 12.0681C30.4074 9.12751 28.516 6.56551 25.975 4.75028C23.434 2.93505 20.3742 1.96004 17.2353 1.96538Z" fill="white"></path><path fill-rule="evenodd" clip-rule="evenodd" d="M19.9033 11.0535H21.7178V8.31883C21.4375 8.31883 21.1416 8.25363 20.8378 8.23445H19.2064C18.3824 8.22943 17.5772 8.47598 16.9013 8.94018C16.5282 9.20814 16.2136 9.54721 15.9761 9.93727C15.7387 10.3273 15.5832 10.7604 15.519 11.2108C15.4576 11.5723 15.4212 11.9375 15.41 12.3039V14.448H12.7661V17.4934H15.3866V25.1299H18.6496V17.4589H21.2739L21.5893 14.448H18.5444V12.3039C18.6301 11.3412 19.1752 11.0727 19.9033 11.0535Z" fill="white"></path></svg>