<svg xmlns="http://www.w3.org/2000/svg" width="34" height="33" viewBox="0 0 34 33" fill="none"><path d="M16.7401 0.511719C13.5133 0.511719 10.359 1.45425 7.67608 3.22013C4.99313 4.98602 2.90202 7.49594 1.66719 10.4325C0.432363 13.369 0.109274 16.6003 0.738784 19.7178C1.36829 22.8352 2.92213 25.6987 5.20379 27.9463C7.48546 30.1938 10.3925 31.7244 13.5572 32.3445C16.722 32.9646 20.0024 32.6464 22.9835 31.43C25.9646 30.2136 28.5127 28.1538 30.3054 25.511C32.098 22.8681 33.0549 19.761 33.0549 16.5825C33.0549 12.3203 31.336 8.23261 28.2764 5.21875C25.2168 2.20489 21.067 0.511719 16.7401 0.511719ZM16.7401 31.4221C13.4905 31.4204 10.3288 30.3831 7.72703 28.4653C5.12529 26.5475 3.22321 23.8521 2.30491 20.7816C1.3866 17.7111 1.50135 14.4304 2.63202 11.4295C3.76268 8.42855 5.84858 5.86845 8.57815 4.13159C11.3077 2.39472 14.5345 1.57431 17.7764 1.79288C21.0184 2.01145 24.1016 3.25728 26.5655 5.34429C29.0293 7.43129 30.7417 10.2475 31.4467 13.3722C32.1518 16.4969 31.8117 19.7624 30.4772 22.681C29.2879 25.2892 27.3584 27.5032 24.9212 29.0561C22.4839 30.609 19.6428 31.4347 16.7401 31.4336V31.4221Z" fill="white"></path><path d="M21.755 7.89488H11.7247C10.736 7.88156 9.7824 8.25544 9.07345 8.93437C8.3645 9.6133 7.9582 10.5417 7.94385 11.5156V21.6835C7.94944 22.1649 8.0513 22.6404 8.2436 23.083C8.4359 23.5256 8.71488 23.9264 9.06457 24.2627C9.41427 24.599 9.82782 24.864 10.2816 25.0428C10.7354 25.2215 11.2204 25.3103 11.7091 25.3043H21.7277C22.216 25.3098 22.7007 25.2206 23.154 25.0417C23.6073 24.8627 24.0204 24.5975 24.3697 24.2613C24.719 23.9251 24.9976 23.5244 25.1897 23.0821C25.3817 22.6398 25.4835 22.1646 25.4891 21.6835V11.5156C25.4788 10.5485 25.0802 9.62471 24.3805 8.94623C23.6808 8.26775 22.7368 7.88975 21.755 7.89488ZM24.0055 21.6835C24.0055 22.2522 23.7762 22.7975 23.368 23.1996C22.9598 23.6017 22.4062 23.8276 21.8289 23.8276H11.7247C11.148 23.8473 10.5869 23.6405 10.1649 23.2529C9.74287 22.8652 9.49439 22.3283 9.47409 21.7602V11.5156C9.47306 11.2341 9.52853 10.9551 9.63731 10.6948C9.74609 10.4345 9.90603 10.1979 10.1079 9.99863C10.3098 9.79939 10.5497 9.64141 10.8138 9.53379C11.0779 9.42618 11.361 9.37104 11.6468 9.37155H21.7433C22.32 9.35188 22.881 9.55859 23.3031 9.94626C23.7251 10.3339 23.9736 10.8708 23.9939 11.4389V11.5156L24.0055 21.6835Z" fill="white"></path><path d="M16.7406 12.0742C15.8327 12.0742 14.9451 12.3394 14.1902 12.8363C13.4352 13.3332 12.8468 14.0395 12.4994 14.8658C12.1519 15.6921 12.061 16.6013 12.2381 17.4785C12.4152 18.3557 12.8525 19.1614 13.4945 19.7939C14.1365 20.4263 14.9545 20.857 15.845 21.0315C16.7355 21.2059 17.6586 21.1164 18.4974 20.7741C19.3363 20.4319 20.0532 19.8523 20.5577 19.1086C21.0621 18.365 21.3314 17.4907 21.3314 16.5963C21.3314 15.397 20.8477 14.2468 19.9868 13.3987C19.1258 12.5507 17.9582 12.0742 16.7406 12.0742ZM16.7406 19.5765C16.1338 19.5765 15.5406 19.3992 15.036 19.0671C14.5314 18.735 14.1381 18.263 13.9059 17.7107C13.6737 17.1584 13.6129 16.5507 13.7313 15.9645C13.8497 15.3782 14.1419 14.8396 14.571 14.417C15.0001 13.9943 15.5469 13.7064 16.142 13.5898C16.7372 13.4732 17.3542 13.533 17.9148 13.7618C18.4755 13.9905 18.9547 14.3779 19.2918 14.875C19.629 15.372 19.8089 15.9563 19.8089 16.5541V16.5963C19.8048 17.3966 19.4802 18.163 18.9057 18.729C18.3312 19.2949 17.5531 19.6146 16.7406 19.6187V19.5765Z" fill="white"></path><path d="M21.6655 12.91C22.2612 12.91 22.7441 12.4344 22.7441 11.8476C22.7441 11.2608 22.2612 10.7852 21.6655 10.7852C21.0698 10.7852 20.5869 11.2608 20.5869 11.8476C20.5869 12.4344 21.0698 12.91 21.6655 12.91Z" fill="white"></path></svg>