<svg xmlns="http://www.w3.org/2000/svg" width="74" height="73" viewBox="0 0 74 73" fill="none"><path d="M73.2202 0.347656H0.633301V72.9346H73.2202V0.347656Z" fill="white"></path><path fill-rule="evenodd" clip-rule="evenodd" d="M46.5494 15.2812C49.7322 15.2812 52.7939 16.5392 55.0463 18.7964C57.3012 21.0488 58.5615 24.0868 58.5615 27.2673V46.0175C58.5615 52.6395 53.1737 58.0034 46.5494 58.0034H23.102C16.4776 58.0034 11.0923 52.6395 11.0923 46.0175V27.2673C11.0923 20.6453 16.4539 15.2812 23.102 15.2812H46.5494ZM50.3253 30.8032L50.5152 30.6133C51.0825 29.925 51.0825 28.9282 50.4891 28.2398C50.1593 27.8862 49.7058 27.6703 49.2335 27.6228C48.7351 27.5967 48.2605 27.7652 47.9021 28.0975L37.2002 36.6419C35.8235 37.7836 33.8512 37.7836 32.4532 36.6419L21.7727 28.0975C21.0345 27.5516 20.0139 27.6228 19.3993 28.2637C18.7584 28.9045 18.6871 29.925 19.2308 30.6371L19.5416 30.9456L30.3408 39.3714C31.6699 40.4158 33.2815 40.9853 34.9692 40.9853C36.6519 40.9853 38.2919 40.4158 39.6187 39.3714L50.3253 30.8032Z" fill="black"></path></svg>