<svg xmlns="http://www.w3.org/2000/svg" width="74" height="74" viewBox="0 0 74 74" fill="none"><path d="M73.2202 0.5625H0.633301V73.1494H73.2202V0.5625Z" fill="white"></path><path d="M50.2689 39.7312C48.8156 39.4186 47.666 40.0933 46.6481 40.6825C45.6057 41.2898 43.6235 42.8978 42.4872 42.4863C36.6699 40.0911 31.1987 34.9994 28.8301 29.1587C28.4127 27.9982 30.0133 26.0034 30.616 24.9487C31.2009 23.9276 31.8615 22.7672 31.5602 21.303C31.2878 19.9873 27.7653 15.5051 26.5198 14.2794C25.6983 13.4698 24.8568 13.0246 23.9929 12.9525C20.7448 12.8132 17.1174 17.1469 16.4813 18.1837C14.8873 20.3945 14.8963 23.3361 16.508 26.9031C20.3922 36.4838 35.0827 50.9424 44.6994 54.9727C46.4741 55.8025 48.0969 56.2186 49.5546 56.2186C50.9809 56.2186 52.2512 55.8205 53.3427 55.0311C54.1665 54.5566 58.6779 50.749 58.5595 47.4138C58.4881 46.5636 58.0439 45.7136 57.2448 44.8905C56.0282 43.6332 51.5747 40.0056 50.2689 39.7312Z" fill="black"></path></svg>