<svg xmlns="http://www.w3.org/2000/svg" width="34" height="32" viewBox="0 0 34 32" fill="none"><path d="M32.6186 10.9685C33.6903 14.0792 33.6851 17.4283 32.6036 20.5361C31.5222 23.6438 29.4201 26.3507 26.5984 28.2691C23.7767 30.1874 20.3802 31.2187 16.8954 31.2153C13.4107 31.2118 10.0165 30.1737 7.19915 28.2498C4.38177 26.3259 2.28575 23.6148 1.21134 20.5049C0.136926 17.395 0.139248 14.0459 1.21798 10.9373C2.29671 7.82871 4.3965 5.12017 7.21654 3.19969C10.0366 1.2792 13.4322 0.245296 16.9169 0.246094C20.4058 0.248597 23.8043 1.28743 26.625 3.21366C29.4457 5.13989 31.5439 7.85457 32.6186 10.9685ZM16.9169 1.64739C13.9447 1.65105 11.0404 2.48147 8.5713 4.03362C6.10217 5.58578 4.17912 7.78996 3.04531 10.3674C1.9115 12.9449 1.61786 15.7799 2.20153 18.514C2.7852 21.248 4.21997 23.7583 6.32439 25.7274C8.42881 27.6964 11.1084 29.0358 14.0242 29.5762C16.9401 30.1166 19.9612 29.8337 22.7057 28.7633C25.4502 27.6929 27.7946 25.883 29.4427 23.5626C31.0907 21.2421 31.9683 18.5153 31.9644 15.727C31.9581 11.9882 30.3695 8.40486 27.5478 5.76463C24.726 3.12441 20.9022 1.64347 16.9169 1.64739Z" fill="white"></path><path d="M8.02519 7.30078L14.9716 16.4446L7.96289 23.8817H9.52039L15.6375 17.3613L20.5786 23.8817H25.9325L18.5967 14.22L25.0993 7.31613H23.5418L17.9075 13.311L13.3557 7.31613L8.02519 7.30078ZM10.3381 8.45143H12.7989L23.6547 22.7464H21.1938L10.3381 8.45143Z" fill="white"></path></svg>