<svg xmlns="http://www.w3.org/2000/svg" width="74" height="73" viewBox="0 0 74 73" fill="none"><path d="M73.2202 0.09375H0.633301V72.6807H73.2202V0.09375Z" fill="white"></path><path fill-rule="evenodd" clip-rule="evenodd" d="M47.9474 40.5539C47.4911 41.8454 45.6775 42.9138 44.2311 43.2263C43.241 43.4365 41.9498 43.6028 37.5993 41.7999C32.7131 39.7755 25.928 32.5645 25.928 27.7658C25.928 25.3228 27.3365 22.4782 29.7995 22.4782C30.9846 22.4782 31.2459 22.5013 31.6359 23.4368C32.0921 24.539 33.2053 27.2544 33.3378 27.5328C33.8849 28.6747 32.7812 29.3432 31.9804 30.3374C31.7248 30.6366 31.4352 30.9602 31.7589 31.517C32.0808 32.0624 33.1939 33.8766 34.8296 35.3329C36.9424 37.2152 38.6557 37.8162 39.2691 38.0719C39.7253 38.2612 40.2706 38.2171 40.6038 37.8611C41.0259 37.4047 41.5504 36.6475 42.0842 35.9014C42.461 35.3673 42.94 35.3006 43.4416 35.49C43.7805 35.6074 48.0874 37.6076 48.2692 37.9276C48.4036 38.1606 48.4036 39.2623 47.9474 40.5539ZM36.931 13.8203H36.9216C26.4845 13.8203 17.9956 22.3118 17.9956 32.752C17.9956 36.8917 19.3303 40.7323 21.6002 43.8475L19.2413 50.8821L26.5168 48.5573C29.5098 50.5381 33.0822 51.6836 36.931 51.6836C47.368 51.6836 55.8589 43.1921 55.8589 32.752C55.8589 22.3118 47.368 13.8203 36.931 13.8203Z" fill="black"></path></svg>