<svg xmlns="http://www.w3.org/2000/svg" width="33" height="33" viewBox="0 0 33 33" fill="none"><path d="M32.1869 11.7814C33.2171 15.0221 33.1792 18.5009 32.0787 21.7191C30.9781 24.9373 28.8715 27.7296 26.0606 29.6957C23.2498 31.6619 19.8791 32.7009 16.4319 32.6638C12.9847 32.6267 9.6379 31.5154 6.87133 29.4893C4.10476 27.4631 2.06048 24.6262 1.03155 21.3851C0.00263089 18.144 0.0418928 14.6652 1.14373 11.4474C2.24556 8.22968 4.35338 5.43819 7.16501 3.47314C9.97664 1.5081 13.3477 0.470412 16.7949 0.508843C20.2399 0.547249 23.5842 1.65843 26.349 3.68328C29.1138 5.70812 31.1573 8.54279 32.1869 11.7814ZM16.7793 1.9625C13.6455 1.93179 10.5822 2.87898 8.02835 4.66835C5.47451 6.45772 3.56117 8.99744 2.56249 11.9236C1.56382 14.8498 1.53105 18.0123 2.46887 20.958C3.40669 23.9036 5.26699 26.4813 7.78321 28.3217C10.2994 30.162 13.3425 31.1706 16.4763 31.2029C19.6101 31.2352 22.6739 30.2896 25.2287 28.5016C27.7835 26.7135 29.6982 24.1748 30.6984 21.2491C31.6986 18.3234 31.7331 15.161 30.7968 12.2148C29.8592 9.2665 27.9978 6.6864 25.4796 4.84458C22.9614 3.00275 19.9157 1.99382 16.7793 1.9625Z" fill="white"></path><path d="M10.5136 13.7264L13.6286 13.7571L13.5195 23.6489L10.4045 23.6144L10.5136 13.7264ZM12.1373 8.82463C12.494 8.83071 12.841 8.94072 13.1344 9.14078C13.4277 9.34084 13.6544 9.62199 13.7858 9.94878C13.9172 10.2756 13.9474 10.6334 13.8726 10.977C13.7978 11.3207 13.6214 11.6349 13.3656 11.8799C13.1098 12.125 12.786 12.2899 12.4352 12.3539C12.0843 12.418 11.7221 12.3782 11.3941 12.2398C11.0662 12.1013 10.7872 11.8702 10.5924 11.5758C10.3976 11.2813 10.2956 10.9366 10.2994 10.5851C10.3009 10.3501 10.3498 10.1178 10.4434 9.90159C10.5369 9.6854 10.6731 9.48969 10.8441 9.32586C11.0152 9.16202 11.2176 9.03334 11.4396 8.94729C11.6616 8.86124 11.8988 8.81954 12.1373 8.82463Z" fill="white"></path><path d="M15.5632 13.7782L18.5536 13.8088V15.1589C18.8584 14.6565 19.2963 14.2454 19.8204 13.9697C20.3445 13.694 20.935 13.5641 21.5284 13.5941C24.6823 13.6286 25.2469 15.6806 25.2197 18.3501L25.1613 23.7697L22.1125 23.739L22.167 18.9254C22.167 17.7748 22.1942 16.3019 20.5744 16.2828C18.9546 16.2636 18.6899 17.5178 18.6782 18.749L18.6237 23.6469L15.4697 23.6124L15.5632 13.7782Z" fill="white"></path></svg>