<svg xmlns="http://www.w3.org/2000/svg" width="18" height="18" viewBox="0 0 18 18" fill="none"><g clip-path="url(#clip0_52_135)"><path d="M9.33328 0.761809C10.2344 0.748047 11.129 0.755203 12.023 0.748047C12.0527 1.8661 12.5063 2.87241 13.228 3.61778L13.2269 3.61668C14.0037 4.31636 15.0144 4.76997 16.1286 4.84703L16.144 4.84814V7.62043C15.0915 7.59401 14.1017 7.35124 13.2093 6.93396L13.2545 6.95268C12.8229 6.74514 12.4579 6.5321 12.1111 6.29429L12.1397 6.313C12.1331 8.32176 12.1463 10.3305 12.1259 12.3321C12.0692 13.3522 11.7301 14.2825 11.1862 15.0593L11.1973 15.0422C10.2878 16.3447 8.81471 17.1996 7.13956 17.2502H7.13185C7.06414 17.2535 6.98432 17.2552 6.90394 17.2552C5.95159 17.2552 5.06144 16.9899 4.30285 16.5291L4.32487 16.5418C2.94423 15.7111 1.99188 14.2897 1.81572 12.6365L1.81351 12.614C1.79975 12.2699 1.79315 11.9259 1.80691 11.589C2.07665 8.95813 4.28083 6.92295 6.9601 6.92295C7.26122 6.92295 7.55628 6.94883 7.84309 6.99782L7.81226 6.99342C7.82602 8.01128 7.78474 9.0297 7.78474 10.0476C7.55188 9.96334 7.28324 9.91434 7.00303 9.91434C5.97471 9.91434 5.09997 10.5716 4.77628 11.4893L4.77133 11.5058C4.69811 11.7409 4.65572 12.0112 4.65572 12.2908C4.65572 12.4042 4.66288 12.5165 4.67609 12.6266L4.67499 12.6134C4.85775 13.7397 5.82332 14.5897 6.98762 14.5897C7.0212 14.5897 7.05423 14.5892 7.08726 14.5875H7.08231C7.88768 14.5633 8.58681 14.13 8.98206 13.4898L8.98757 13.4799C9.13455 13.2751 9.23529 13.0274 9.26887 12.7582L9.26942 12.7505C9.33824 11.519 9.31071 10.2947 9.31732 9.06328C9.32392 6.29098 9.31071 3.5253 9.33108 0.760158L9.33328 0.761809Z" fill="white"></path></g><defs><clipPath id="clip0_52_135"><rect width="17.6159" height="17.6159" fill="white" transform="translate(0.164551 0.195312)"></rect></clipPath></defs></svg>