<svg xmlns="http://www.w3.org/2000/svg" width="195" height="87" viewBox="0 0 195 87" fill="none"><path d="M194.459 0.677734H184.526V86.5504H194.459V0.677734Z" fill="#009282"></path><path fill-rule="evenodd" clip-rule="evenodd" d="M191.423 60.2088C191.423 60.5804 191.728 60.8856 192.1 60.8856H192.346C192.718 60.8856 193.023 60.5804 193.023 60.2088V57.169C193.023 56.7973 192.718 56.4883 192.346 56.4883H192.1C191.728 56.4883 191.423 56.7934 191.423 57.169V60.2088Z" fill="white"></path><path fill-rule="evenodd" clip-rule="evenodd" d="M185.953 60.2088C185.953 60.5804 186.258 60.8856 186.634 60.8856H186.88C187.252 60.8856 187.557 60.5804 187.557 60.2088V57.169C187.557 56.7973 187.252 56.4883 186.88 56.4883H186.634C186.262 56.4883 185.953 56.7934 185.953 57.169V60.2088Z" fill="white"></path><path fill-rule="evenodd" clip-rule="evenodd" d="M191.423 13.0017C191.423 13.3773 191.728 13.6825 192.1 13.6825H192.346C192.718 13.6825 193.023 13.3773 193.023 13.0017V9.96588C193.023 9.59031 192.718 9.28516 192.346 9.28516H192.1C191.728 9.28516 191.423 9.59031 191.423 9.96588V13.0017Z" fill="white"></path><path fill-rule="evenodd" clip-rule="evenodd" d="M191.423 19.6053C191.423 19.9769 191.728 20.286 192.1 20.286H192.346C192.718 20.286 193.023 19.9808 193.023 19.6053V16.5694C193.023 16.1938 192.718 15.8887 192.346 15.8887H192.1C191.728 15.8887 191.423 16.1938 191.423 16.5694V19.6053Z" fill="white"></path><path fill-rule="evenodd" clip-rule="evenodd" d="M191.423 26.2049C191.423 26.5765 191.728 26.8856 192.1 26.8856H192.346C192.718 26.8856 193.023 26.5804 193.023 26.2049V23.169C193.023 22.7973 192.718 22.4922 192.346 22.4922H192.1C191.728 22.4922 191.423 22.7973 191.423 23.169V26.2049Z" fill="white"></path><path fill-rule="evenodd" clip-rule="evenodd" d="M191.423 33.8064C191.423 34.1781 191.728 34.4832 192.1 34.4832H192.346C192.718 34.4832 193.023 34.1781 193.023 33.8064V30.7667C193.023 30.3911 192.718 30.0898 192.346 30.0898H192.1C191.728 30.0898 191.423 30.395 191.423 30.7667V33.8064Z" fill="white"></path><path fill-rule="evenodd" clip-rule="evenodd" d="M191.423 40.406C191.423 40.7777 191.728 41.0828 192.1 41.0828H192.346C192.718 41.0828 193.023 40.7777 193.023 40.406V37.3663C193.023 36.9946 192.718 36.6895 192.346 36.6895H192.1C191.728 36.6895 191.423 36.9946 191.423 37.3663V40.406Z" fill="white"></path><path fill-rule="evenodd" clip-rule="evenodd" d="M191.423 47.0056C191.423 47.3773 191.728 47.6864 192.1 47.6864H192.346C192.718 47.6864 193.023 47.3812 193.023 47.0056V43.9698C193.023 43.5981 192.718 43.293 192.346 43.293H192.1C191.728 43.293 191.423 43.5981 191.423 43.9698V47.0056Z" fill="white"></path><path fill-rule="evenodd" clip-rule="evenodd" d="M191.423 53.6092C191.423 53.9847 191.728 54.2899 192.1 54.2899H192.346C192.718 54.2899 193.023 53.9847 193.023 53.6092V50.5694C193.023 50.1977 192.718 49.8926 192.346 49.8926H192.1C191.728 49.8926 191.423 50.1977 191.423 50.5694V53.6092Z" fill="white"></path><path fill-rule="evenodd" clip-rule="evenodd" d="M185.953 13.0017C185.953 13.3773 186.258 13.6825 186.634 13.6825H186.88C187.252 13.6825 187.557 13.3773 187.557 13.0017V9.96588C187.557 9.59031 187.252 9.28516 186.88 9.28516H186.634C186.262 9.28516 185.953 9.59031 185.953 9.96588V13.0017Z" fill="#084E8A"></path><path fill-rule="evenodd" clip-rule="evenodd" d="M185.953 19.6053C185.953 19.9769 186.258 20.286 186.634 20.286H186.88C187.252 20.286 187.557 19.9808 187.557 19.6053V16.5694C187.557 16.1938 187.252 15.8887 186.88 15.8887H186.634C186.262 15.8887 185.953 16.1938 185.953 16.5694V19.6053Z" fill="#084E8A"></path><path fill-rule="evenodd" clip-rule="evenodd" d="M185.953 26.2049C185.953 26.5765 186.258 26.8856 186.634 26.8856H186.88C187.252 26.8856 187.557 26.5804 187.557 26.2049V23.169C187.557 22.7973 187.252 22.4922 186.88 22.4922H186.634C186.262 22.4922 185.953 22.7973 185.953 23.169V26.2049Z" fill="#084E8A"></path><path fill-rule="evenodd" clip-rule="evenodd" d="M185.953 33.8064C185.953 34.1781 186.258 34.4832 186.634 34.4832H186.88C187.252 34.4832 187.557 34.1781 187.557 33.8064V30.7667C187.557 30.3911 187.252 30.0898 186.88 30.0898H186.634C186.262 30.0898 185.953 30.395 185.953 30.7667V33.8064Z" fill="white"></path><path fill-rule="evenodd" clip-rule="evenodd" d="M185.953 40.406C185.953 40.7777 186.258 41.0828 186.634 41.0828H186.88C187.252 41.0828 187.557 40.7777 187.557 40.406V37.3663C187.557 36.9946 187.252 36.6895 186.88 36.6895H186.634C186.262 36.6895 185.953 36.9946 185.953 37.3663V40.406Z" fill="white"></path><path fill-rule="evenodd" clip-rule="evenodd" d="M185.953 47.0056C185.953 47.3773 186.258 47.6864 186.634 47.6864H186.88C187.252 47.6864 187.557 47.3812 187.557 47.0056V43.9698C187.557 43.5981 187.252 43.293 186.88 43.293H186.634C186.262 43.293 185.953 43.5981 185.953 43.9698V47.0056Z" fill="white"></path><path fill-rule="evenodd" clip-rule="evenodd" d="M185.953 53.6092C185.953 53.9847 186.258 54.2899 186.634 54.2899H186.88C187.252 54.2899 187.557 53.9847 187.557 53.6092V50.5694C187.557 50.1977 187.252 49.8926 186.88 49.8926H186.634C186.262 49.8926 185.953 50.1977 185.953 50.5694V53.6092Z" fill="white"></path><path fill-rule="evenodd" clip-rule="evenodd" d="M193.034 13.0056C193.034 13.3812 192.729 13.6825 192.357 13.6825H192.111C191.735 13.6825 191.43 13.3773 191.43 13.0056V9.96587C191.43 9.59421 191.735 9.28906 192.111 9.28906H192.357C192.729 9.28906 193.034 9.59421 193.034 9.96587V13.0056Z" fill="white"></path><path fill-rule="evenodd" clip-rule="evenodd" d="M193.034 19.6053C193.034 19.9769 192.729 20.2821 192.357 20.2821H192.111C191.735 20.2821 191.43 19.9769 191.43 19.6053V16.5655C191.43 16.1899 191.735 15.8848 192.111 15.8848H192.357C192.729 15.8848 193.034 16.1899 193.034 16.5655V19.6053Z" fill="white"></path><path fill-rule="evenodd" clip-rule="evenodd" d="M193.034 26.2049C193.034 26.5765 192.729 26.8856 192.357 26.8856H192.111C191.735 26.8856 191.43 26.5804 191.43 26.2049V23.169C191.43 22.7934 191.735 22.4883 192.111 22.4883H192.357C192.729 22.4883 193.034 22.7934 193.034 23.169V26.2049Z" fill="white"></path><path d="M10.6835 0.673828H0.750488V86.5504H10.6835V0.673828Z" fill="#009282"></path><path fill-rule="evenodd" clip-rule="evenodd" d="M7.64795 60.2088C7.64795 60.5804 7.9531 60.8856 8.32867 60.8856H8.57514C8.9468 60.8856 9.25195 60.5804 9.25195 60.2088V57.169C9.25195 56.7973 8.9468 56.4883 8.57514 56.4883H8.32867C7.95701 56.4883 7.64795 56.7934 7.64795 57.169V60.2088Z" fill="white"></path><path fill-rule="evenodd" clip-rule="evenodd" d="M2.17822 60.2088C2.17822 60.5804 2.48338 60.8856 2.85504 60.8856H3.1015C3.47707 60.8856 3.78222 60.5804 3.78222 60.2088V57.169C3.78222 56.7973 3.47707 56.4883 3.1015 56.4883H2.85504C2.48338 56.4883 2.17822 56.7934 2.17822 57.169V60.2088Z" fill="white"></path><path fill-rule="evenodd" clip-rule="evenodd" d="M7.64795 13.0017C7.64795 13.3773 7.9531 13.6825 8.32867 13.6825H8.57514C8.9468 13.6825 9.25195 13.3773 9.25195 13.0017V9.96588C9.25195 9.59031 8.9468 9.28516 8.57514 9.28516H8.32867C7.95701 9.28516 7.64795 9.59031 7.64795 9.96588V13.0017Z" fill="#084E8A"></path><path fill-rule="evenodd" clip-rule="evenodd" d="M7.64795 19.6053C7.64795 19.9769 7.9531 20.286 8.32867 20.286H8.57514C8.9468 20.286 9.25195 19.9808 9.25195 19.6053V16.5694C9.25195 16.1938 8.9468 15.8887 8.57514 15.8887H8.32867C7.95701 15.8887 7.64795 16.1938 7.64795 16.5694V19.6053Z" fill="#084E8A"></path><path fill-rule="evenodd" clip-rule="evenodd" d="M7.64795 26.2049C7.64795 26.5765 7.9531 26.8856 8.32867 26.8856H8.57514C8.9468 26.8856 9.25195 26.5804 9.25195 26.2049V23.169C9.25195 22.7973 8.9468 22.4922 8.57514 22.4922H8.32867C7.95701 22.4922 7.64795 22.7973 7.64795 23.169V26.2049Z" fill="#084E8A"></path><path fill-rule="evenodd" clip-rule="evenodd" d="M7.64795 33.8064C7.64795 34.1781 7.9531 34.4832 8.32867 34.4832H8.57514C8.9468 34.4832 9.25195 34.1781 9.25195 33.8064V30.7667C9.25195 30.3911 8.9468 30.0898 8.57514 30.0898H8.32867C7.95701 30.0898 7.64795 30.395 7.64795 30.7667V33.8064Z" fill="white"></path><path fill-rule="evenodd" clip-rule="evenodd" d="M7.64795 40.406C7.64795 40.7777 7.9531 41.0828 8.32867 41.0828H8.57514C8.9468 41.0828 9.25195 40.7777 9.25195 40.406V37.3663C9.25195 36.9946 8.9468 36.6895 8.57514 36.6895H8.32867C7.95701 36.6895 7.64795 36.9946 7.64795 37.3663V40.406Z" fill="white"></path><path fill-rule="evenodd" clip-rule="evenodd" d="M7.64795 47.0056C7.64795 47.3773 7.9531 47.6864 8.32867 47.6864H8.57514C8.9468 47.6864 9.25195 47.3812 9.25195 47.0056V43.9698C9.25195 43.5981 8.9468 43.293 8.57514 43.293H8.32867C7.95701 43.293 7.64795 43.5981 7.64795 43.9698V47.0056Z" fill="white"></path><path fill-rule="evenodd" clip-rule="evenodd" d="M7.64795 53.6092C7.64795 53.9847 7.9531 54.2899 8.32867 54.2899H8.57514C8.9468 54.2899 9.25195 53.9847 9.25195 53.6092V50.5694C9.25195 50.1977 8.9468 49.8926 8.57514 49.8926H8.32867C7.95701 49.8926 7.64795 50.1977 7.64795 50.5694V53.6092Z" fill="white"></path><path fill-rule="evenodd" clip-rule="evenodd" d="M2.17822 13.0017C2.17822 13.3773 2.48338 13.6825 2.85504 13.6825H3.1015C3.47707 13.6825 3.78222 13.3773 3.78222 13.0017V9.96588C3.78222 9.59031 3.47707 9.28516 3.1015 9.28516H2.85504C2.48338 9.28516 2.17822 9.59031 2.17822 9.96588V13.0017Z" fill="white"></path><path fill-rule="evenodd" clip-rule="evenodd" d="M2.17822 19.6053C2.17822 19.9769 2.48338 20.286 2.85504 20.286H3.1015C3.47707 20.286 3.78222 19.9808 3.78222 19.6053V16.5694C3.78222 16.1938 3.47707 15.8887 3.1015 15.8887H2.85504C2.48338 15.8887 2.17822 16.1938 2.17822 16.5694V19.6053Z" fill="white"></path><path fill-rule="evenodd" clip-rule="evenodd" d="M2.17822 26.2049C2.17822 26.5765 2.48338 26.8856 2.85504 26.8856H3.1015C3.47707 26.8856 3.78222 26.5804 3.78222 26.2049V23.169C3.78222 22.7973 3.47707 22.4922 3.1015 22.4922H2.85504C2.48338 22.4922 2.17822 22.7973 2.17822 23.169V26.2049Z" fill="white"></path><path fill-rule="evenodd" clip-rule="evenodd" d="M2.17822 33.8064C2.17822 34.1781 2.48338 34.4832 2.85504 34.4832H3.1015C3.47707 34.4832 3.78222 34.1781 3.78222 33.8064V30.7667C3.78222 30.3911 3.47707 30.0898 3.1015 30.0898H2.85504C2.48338 30.0898 2.17822 30.395 2.17822 30.7667V33.8064Z" fill="white"></path><path fill-rule="evenodd" clip-rule="evenodd" d="M2.17822 40.406C2.17822 40.7777 2.48338 41.0828 2.85504 41.0828H3.1015C3.47707 41.0828 3.78222 40.7777 3.78222 40.406V37.3663C3.78222 36.9946 3.47707 36.6895 3.1015 36.6895H2.85504C2.48338 36.6895 2.17822 36.9946 2.17822 37.3663V40.406Z" fill="white"></path><path fill-rule="evenodd" clip-rule="evenodd" d="M2.17822 47.0056C2.17822 47.3773 2.48338 47.6864 2.85504 47.6864H3.1015C3.47707 47.6864 3.78222 47.3812 3.78222 47.0056V43.9698C3.78222 43.5981 3.47707 43.293 3.1015 43.293H2.85504C2.48338 43.293 2.17822 43.5981 2.17822 43.9698V47.0056Z" fill="white"></path><path fill-rule="evenodd" clip-rule="evenodd" d="M2.17822 53.6092C2.17822 53.9847 2.48338 54.2899 2.85504 54.2899H3.1015C3.47707 54.2899 3.78222 53.9847 3.78222 53.6092V50.5694C3.78222 50.1977 3.47707 49.8926 3.1015 49.8926H2.85504C2.48338 49.8926 2.17822 50.1977 2.17822 50.5694V53.6092Z" fill="white"></path><path d="M10.6869 7.98242H6.22705V28.0911H10.6869V7.98242Z" fill="#F58220"></path><path d="M184.49 7.98242H10.687V19.273H184.49V7.98242Z" fill="#F58220"></path><path fill-rule="evenodd" clip-rule="evenodd" d="M9.25977 13.0056C9.25977 13.3812 8.95461 13.6825 8.57904 13.6825H8.33258C7.96092 13.6825 7.65186 13.3773 7.65186 13.0056V9.96587C7.65186 9.59421 7.95701 9.28906 8.33258 9.28906H8.57904C8.9507 9.28906 9.25977 9.59421 9.25977 9.96587V13.0056Z" fill="#F04923"></path><path fill-rule="evenodd" clip-rule="evenodd" d="M9.25977 19.6053C9.25977 19.9769 8.95461 20.2821 8.57904 20.2821H8.33258C7.96092 20.2821 7.65186 19.9769 7.65186 19.6053V16.5655C7.65186 16.1899 7.95701 15.8848 8.33258 15.8848H8.57904C8.9507 15.8848 9.25977 16.1899 9.25977 16.5655V19.6053Z" fill="#F04923"></path><path fill-rule="evenodd" clip-rule="evenodd" d="M9.25977 26.2049C9.25977 26.5765 8.95461 26.8856 8.57904 26.8856H8.33258C7.96092 26.8856 7.65186 26.5804 7.65186 26.2049V23.169C7.65186 22.7934 7.95701 22.4883 8.33258 22.4883H8.57904C8.9507 22.4883 9.25977 22.7934 9.25977 23.169V26.2049Z" fill="#F04923"></path><path d="M188.95 7.98242H184.49V28.0911H188.95V7.98242Z" fill="#F58220"></path><path fill-rule="evenodd" clip-rule="evenodd" d="M185.915 13.0056C185.915 13.3812 186.22 13.6825 186.595 13.6825H186.842C187.213 13.6825 187.519 13.3773 187.519 13.0056V9.96587C187.519 9.59421 187.213 9.28906 186.842 9.28906H186.595C186.224 9.28906 185.915 9.59421 185.915 9.96587V13.0056Z" fill="#F04923"></path><path fill-rule="evenodd" clip-rule="evenodd" d="M185.915 19.6053C185.915 19.9769 186.22 20.2821 186.595 20.2821H186.842C187.213 20.2821 187.519 19.9769 187.519 19.6053V16.5655C187.519 16.1899 187.213 15.8848 186.842 15.8848H186.595C186.224 15.8848 185.915 16.1899 185.915 16.5655V19.6053Z" fill="#F04923"></path><path fill-rule="evenodd" clip-rule="evenodd" d="M185.915 26.2049C185.915 26.5765 186.22 26.8856 186.595 26.8856H186.842C187.213 26.8856 187.519 26.5804 187.519 26.2049V23.169C187.519 22.7934 187.213 22.4883 186.842 22.4883H186.595C186.224 22.4883 185.915 22.7934 185.915 23.169V26.2049Z" fill="#F04923"></path><path fill-rule="evenodd" clip-rule="evenodd" d="M185.953 70.2374C185.953 69.8618 186.258 69.5566 186.634 69.5566H186.88C187.252 69.5566 187.557 69.8618 187.557 70.2374V73.2732C187.557 73.6488 187.252 73.9539 186.88 73.9539H186.634C186.262 73.9539 185.953 73.6488 185.953 73.2732V70.2374Z" fill="#084E8A"></path><path fill-rule="evenodd" clip-rule="evenodd" d="M185.953 63.6319C185.953 63.2602 186.258 62.9512 186.634 62.9512H186.88C187.252 62.9512 187.557 63.2563 187.557 63.6319V66.6678C187.557 67.0433 187.252 67.3485 186.88 67.3485H186.634C186.262 67.3485 185.953 67.0433 185.953 66.6678V63.6319Z" fill="#084E8A"></path><path fill-rule="evenodd" clip-rule="evenodd" d="M7.64795 70.2374C7.64795 69.8618 7.9531 69.5566 8.32867 69.5566H8.57514C8.9468 69.5566 9.25195 69.8618 9.25195 70.2374V73.2732C9.25195 73.6488 8.9468 73.9539 8.57514 73.9539H8.32867C7.95701 73.9539 7.64795 73.6488 7.64795 73.2732V70.2374Z" fill="#084E8A"></path><path fill-rule="evenodd" clip-rule="evenodd" d="M7.64795 63.6319C7.64795 63.2602 7.9531 62.9512 8.32867 62.9512H8.57514C8.9468 62.9512 9.25195 63.2563 9.25195 63.6319V66.6678C9.25195 67.0433 8.9468 67.3485 8.57514 67.3485H8.32867C7.95701 67.3485 7.64795 67.0433 7.64795 66.6678V63.6319Z" fill="#084E8A"></path><path d="M10.6869 62.5176H6.22705V81.4643H10.6869V62.5176Z" fill="#F58220"></path><path d="M184.49 62.5449H10.687V73.8355H184.49V62.5449Z" fill="#F58220"></path><path fill-rule="evenodd" clip-rule="evenodd" d="M9.25977 70.2335C9.25977 69.8579 8.95461 69.5566 8.57904 69.5566H8.33258C7.96092 69.5566 7.65186 69.8618 7.65186 70.2335V73.2732C7.65186 73.6449 7.95701 73.95 8.33258 73.95H8.57904C8.9507 73.95 9.25977 73.6449 9.25977 73.2732V70.2335Z" fill="#F04923"></path><path fill-rule="evenodd" clip-rule="evenodd" d="M9.25977 63.6319C9.25977 63.2602 8.95461 62.9551 8.57904 62.9551H8.33258C7.96092 62.9551 7.65186 63.2602 7.65186 63.6319V66.6717C7.65186 67.0472 7.95701 67.3524 8.33258 67.3524H8.57904C8.9507 67.3524 9.25977 67.0472 9.25977 66.6717V63.6319Z" fill="#F04923"></path><path d="M188.95 62.5605H184.49V81.4525H188.95V62.5605Z" fill="#F58220"></path><path fill-rule="evenodd" clip-rule="evenodd" d="M185.915 70.2335C185.915 69.8579 186.22 69.5566 186.595 69.5566H186.842C187.213 69.5566 187.519 69.8618 187.519 70.2335V73.2732C187.519 73.6449 187.213 73.95 186.842 73.95H186.595C186.224 73.95 185.915 73.6449 185.915 73.2732V70.2335Z" fill="#F04923"></path><path fill-rule="evenodd" clip-rule="evenodd" d="M185.915 63.6319C185.915 63.2602 186.22 62.9551 186.595 62.9551H186.842C187.213 62.9551 187.519 63.2602 187.519 63.6319V66.6717C187.519 67.0472 187.213 67.3524 186.842 67.3524H186.595C186.224 67.3524 185.915 67.0472 185.915 66.6717V63.6319Z" fill="#F04923"></path><path fill-rule="evenodd" clip-rule="evenodd" d="M2.17822 66.7381C2.17822 67.1097 2.48338 67.4149 2.85504 67.4149H3.1015C3.47707 67.4149 3.78222 67.1097 3.78222 66.7381V63.6983C3.78222 63.3266 3.47707 63.0176 3.1015 63.0176H2.85504C2.48338 63.0176 2.17822 63.3227 2.17822 63.6983V66.7381Z" fill="white"></path><path fill-rule="evenodd" clip-rule="evenodd" d="M2.17822 73.2224C2.17822 73.5941 2.48338 73.8993 2.85504 73.8993H3.1015C3.47707 73.8993 3.78222 73.5941 3.78222 73.2224V70.1827C3.78222 69.811 3.47707 69.502 3.1015 69.502H2.85504C2.48338 69.502 2.17822 69.8071 2.17822 70.1827V73.2224Z" fill="white"></path><path fill-rule="evenodd" clip-rule="evenodd" d="M191.423 66.5389C191.423 66.9105 191.728 67.2157 192.1 67.2157H192.346C192.718 67.2157 193.023 66.9105 193.023 66.5389V63.4991C193.023 63.1274 192.718 62.8184 192.346 62.8184H192.1C191.728 62.8184 191.423 63.1235 191.423 63.4991V66.5389Z" fill="white"></path><path fill-rule="evenodd" clip-rule="evenodd" d="M191.423 73.3318C191.423 73.7074 191.728 74.0086 192.1 74.0086H192.346C192.718 74.0086 193.023 73.7035 193.023 73.3318V70.292C193.023 69.9204 192.718 69.6113 192.346 69.6113H192.1C191.728 69.6113 191.423 69.9165 191.423 70.292V73.3318Z" fill="white"></path><path fill-rule="evenodd" clip-rule="evenodd" d="M34.6841 31.8965H50.2272V35.6678H36.6597V47.4005H50.1959V51.301H34.8797C33.7178 51.301 32.7671 50.3503 32.7671 49.1884V33.8135C32.7671 32.7572 33.6317 31.8965 34.6841 31.8965Z" fill="black"></path><path fill-rule="evenodd" clip-rule="evenodd" d="M56.9534 23.9277H35.4676C29.6893 23.9277 24.9595 28.6576 24.9595 34.4359V49.0518C24.9595 54.615 29.5094 59.1649 35.0725 59.1649H54.031C55.6389 59.1649 57.1138 57.8504 57.1138 56.2425V55.4835H57.1177V41.8769C57.1177 40.715 56.167 39.7643 55.0051 39.7643H40.5183V43.6648H53.229V55.1392H34.9395C31.6259 55.1392 28.9147 52.4281 28.9147 49.1144V34.2168C28.9147 30.7741 31.7315 27.9534 35.1781 27.9534H56.9612V23.9277H56.9534Z" fill="#F58220"></path><path fill-rule="evenodd" clip-rule="evenodd" d="M67.1405 24.1621C66.4284 24.1621 65.8925 24.3773 65.5365 24.8037C65.1804 25.2028 65.0005 25.7035 65.0005 26.3021V35.75C65.0005 36.5755 65.2078 37.1389 65.6186 37.4401C66.045 37.7413 66.4324 37.89 66.7727 37.89H86.3767C87.5582 37.89 88.1529 37.2993 88.1529 36.1139V29.7018H73.7208V32.3738H84.0685V35.0458H69.2765V27.0297H90.8053V24.1621H67.1405ZM95.5234 24.1621H91.2474V35.75C91.2474 36.5755 91.4547 37.1389 91.8655 37.4401C92.292 37.7413 92.6793 37.89 93.0196 37.89H112.624C113.805 37.89 114.4 37.2993 114.4 36.1139V24.1621H110.315V35.0419H95.5234V24.1621ZM136.476 37.89V35.0458H128.01H119.736V24.1621H115.632V35.75C115.632 36.5755 115.902 37.1389 116.446 37.4401C116.974 37.7413 117.592 37.89 118.304 37.89H136.476ZM163.345 24.1621H140.385C139.688 24.1621 139.058 24.3421 138.503 24.6981C137.975 25.0541 137.713 25.5901 137.713 26.3021V37.89H141.816V32.3738H153.917V29.7018H141.816V27.3701C141.816 27.2567 141.875 27.1706 141.989 27.1119C142.102 27.0532 142.223 27.0258 142.352 27.0258H163.345V24.1621Z" fill="black"></path><path fill-rule="evenodd" clip-rule="evenodd" d="M163.387 41.3438H143.928V43.8358H151.213V53.2759H154.929V43.8358H163.387V41.3438Z" fill="black"></path><path fill-rule="evenodd" clip-rule="evenodd" d="M130.244 41.3438C129.625 41.3438 129.16 41.5237 128.851 41.8836C128.542 42.2318 128.385 42.67 128.385 43.202V48.4796H143.255V50.8034H128.385V53.2759H144.965C145.583 53.2759 146.049 53.1195 146.358 52.8104C146.667 52.4779 146.823 52.0123 146.823 51.4177V45.9914H132.102V43.8163H150.669V41.3438H130.244Z" fill="black"></path><path fill-rule="evenodd" clip-rule="evenodd" d="M105.041 43.8358V50.8073H98.5348H92.1775V43.8358H98.5348H105.041ZM106.899 41.3438H98.5348H90.3192C89.7011 41.3438 89.2356 41.5315 88.9265 41.9032C88.6174 42.2514 88.4609 42.6856 88.4609 43.206V51.4216C88.4609 52.1414 88.6409 52.6304 89.0008 52.8886C89.3725 53.1507 89.7089 53.2799 90.0062 53.2799H98.5387H107.052C107.361 53.2799 107.697 53.1507 108.057 52.8886C108.417 52.6422 108.597 52.1531 108.597 51.4216V43.206C108.597 42.6974 108.468 42.2631 108.206 41.9032C107.955 41.5315 107.521 41.3438 106.899 41.3438Z" fill="black"></path><path fill-rule="evenodd" clip-rule="evenodd" d="M113.574 43.3007C113.574 43.3007 113.554 43.3085 113.519 43.3202C113.484 43.332 113.425 43.3515 113.351 43.375C113.191 43.4259 113.108 43.5002 113.108 43.598V45.6245H123.468V43.598C123.468 43.5002 123.386 43.4259 123.225 43.375C123.151 43.3515 123.096 43.332 123.057 43.3202C123.018 43.3085 123.002 43.3007 123.002 43.3007H113.574ZM127.02 42.6669V52.7408H123.472V47.9444H113.112V52.7408H109.564V42.6669C109.564 41.3993 110.765 40.8086 111.888 40.8086H124.7C125.819 40.8086 127.02 41.3993 127.02 42.6669Z" fill="black"></path><path fill-rule="evenodd" clip-rule="evenodd" d="M66.8617 41.3438C66.2436 41.3438 65.778 41.5315 65.469 41.9032C65.1599 42.2514 65.0034 42.6856 65.0034 43.206V51.4216C65.0034 52.1414 65.1834 52.6304 65.5433 52.8886C65.915 53.1507 66.2475 53.2799 66.5487 53.2799H85.1356V50.8073H68.7239V43.8358H87.4594V41.3438H66.8617Z" fill="black"></path><path fill-rule="evenodd" clip-rule="evenodd" d="M73.0981 59.7559V55.9298H76.9243C77.4289 55.9298 77.828 56.0002 78.1253 56.141C78.4226 56.2819 78.5713 56.4618 78.5713 56.6848V57.6316C78.5713 57.8663 78.4187 58.0541 78.1136 58.1949C77.8436 58.3162 77.4915 58.3749 77.0495 58.3749H74.7413V59.7559H73.0981ZM74.7452 57.5338H76.3492C76.7326 57.5338 76.9243 57.4633 76.9243 57.3225V56.9508C76.8969 56.8374 76.756 56.7709 76.4978 56.7474H74.7452V57.5338ZM79.5141 59.7559L81.6306 56.3953C81.8419 56.0549 82.2762 55.8867 82.9295 55.8867C83.575 55.8867 84.0014 56.0549 84.2166 56.3953L86.3331 59.7559H84.6117L84.0914 58.9265H81.7637L81.2433 59.7559H79.5141ZM82.2488 58.1519H83.5985L82.8239 56.9078L82.2488 58.1519ZM87.5068 58.8209V55.9298H89.1538V58.7583C89.1538 58.8717 89.2907 58.9265 89.5685 58.9265H92.4831L92.4713 59.7559H89.4198C89.322 59.7559 89.2281 59.752 89.1421 59.7441C88.5591 59.7246 88.1444 59.6385 87.8862 59.4938C87.6359 59.349 87.5068 59.126 87.5068 58.8209ZM93.8954 58.8209V55.9298H95.5424V58.7583C95.5424 58.8717 95.6793 58.9265 95.9571 58.9265H98.8717L98.8599 59.7559H95.8084C95.7106 59.7559 95.6167 59.752 95.5307 59.7441C94.9477 59.7246 94.5331 59.6385 94.2749 59.4938C94.0206 59.349 93.8954 59.126 93.8954 58.8209ZM100.28 58.9578V56.7591C100.28 56.7083 100.292 56.6535 100.311 56.5909C100.452 56.1527 100.973 55.9337 101.872 55.9337H105.276V56.7513H102.311C102.291 56.7591 102.256 56.767 102.205 56.7709C102.021 56.8061 101.927 56.8804 101.927 56.9939V57.4164H105.276V58.2458H101.927V58.6722C101.927 58.8287 102.068 58.9148 102.354 58.9265H105.276V59.7559H102.107C100.89 59.7559 100.28 59.4899 100.28 58.9578ZM106.54 56.7474V55.9298H111.473V56.7474H109.826V59.7559H108.179V56.7474H106.54ZM115.89 55.9298H119.739C120.796 55.9298 121.324 56.188 121.324 56.7044V57.4712C121.324 57.7176 121.167 57.9132 120.854 58.0541C120.635 58.1519 120.373 58.2145 120.068 58.234C119.947 58.2419 119.853 58.2458 119.782 58.2458L119.528 58.234L121.398 59.7559H119.454L117.721 58.3318C117.615 58.2458 117.572 58.148 117.592 58.0345C117.65 57.7098 117.979 57.5455 118.581 57.5455H119.25C119.54 57.5455 119.685 57.4751 119.685 57.3342V56.9821C119.685 56.853 119.552 56.7787 119.282 56.7591C119.262 56.7513 119.227 56.7474 119.176 56.7474H117.541V59.7559H115.894V55.9298H115.89ZM122.415 59.7559L124.532 56.3953C124.743 56.0549 125.177 55.8867 125.831 55.8867C126.476 55.8867 126.903 56.0549 127.118 56.3953L129.234 59.7559H127.513L126.993 58.9265H124.657L124.137 59.7559H122.415ZM125.146 58.1519H126.496L125.721 56.9078L125.146 58.1519ZM130.408 58.9069V56.8022C130.408 56.4696 130.537 56.2388 130.795 56.1175C131.053 55.9923 131.523 55.9298 132.204 55.9298H135.415V56.7474H132.438C132.227 56.763 132.098 56.8178 132.055 56.9156V58.594C132.055 58.7348 132.106 58.8326 132.204 58.8796C132.258 58.9069 132.372 58.9226 132.544 58.9226C132.544 58.9226 132.591 58.9226 132.681 58.9226H135.412V59.752H131.957C131.773 59.752 131.582 59.7324 131.382 59.6894C130.733 59.5642 130.408 59.3021 130.408 58.9069ZM136.973 59.7559V55.9298H138.62V59.7559H136.973ZM138.952 57.4477L140.63 55.9258H142.512L140.439 57.8076L142.575 59.752H140.681L138.968 58.2106C138.76 58.0267 138.659 57.8937 138.659 57.8154C138.659 57.7568 138.69 57.6902 138.753 57.612L138.952 57.4477ZM143.678 56.6848C143.678 56.6222 143.694 56.5557 143.721 56.4931C143.913 56.1175 144.417 55.9298 145.243 55.9298H148.592V56.7474L145.689 56.7591C145.446 56.767 145.329 56.8256 145.329 56.9391V57.1934C145.329 57.2208 145.333 57.2403 145.341 57.2482C145.376 57.346 145.513 57.4047 145.755 57.4164C145.775 57.4164 145.814 57.4164 145.861 57.4164H147.05C147.406 57.4164 147.715 57.4633 147.985 57.5533C148.388 57.6824 148.592 57.8858 148.592 58.1714V58.9461C148.592 59.2512 148.384 59.4742 147.966 59.615C147.684 59.7089 147.344 59.752 146.945 59.752H143.69V58.9226H146.561C146.816 58.8796 146.945 58.8052 146.945 58.6996V58.4218C146.945 58.3162 146.827 58.2536 146.593 58.2419H145.219C144.668 58.2419 144.237 58.1284 143.932 57.9015C143.764 57.7724 143.678 57.6355 143.678 57.4868V56.6848Z" fill="#F58220"></path><path fill-rule="evenodd" clip-rule="evenodd" d="M2.17822 79.4373C2.17822 79.809 2.48338 80.1141 2.85504 80.1141H3.1015C3.47707 80.1141 3.78222 79.809 3.78222 79.4373V76.3975C3.78222 76.0259 3.47707 75.7168 3.1015 75.7168H2.85504C2.48338 75.7168 2.17822 76.0219 2.17822 76.3975V79.4373Z" fill="white"></path><path fill-rule="evenodd" clip-rule="evenodd" d="M7.70654 79.4373C7.70654 79.809 8.01169 80.1141 8.38335 80.1141H8.62982C9.00148 80.1141 9.31055 79.809 9.31055 79.4373V76.3975C9.31055 76.0259 9.00539 75.7168 8.62982 75.7168H8.38335C8.01169 75.7168 7.70654 76.0219 7.70654 76.3975V79.4373Z" fill="#F04923"></path><path fill-rule="evenodd" clip-rule="evenodd" d="M185.915 76.7628C185.915 76.3872 186.22 76.0859 186.595 76.0859H186.842C187.213 76.0859 187.519 76.3911 187.519 76.7628V79.8025C187.519 80.1742 187.213 80.4793 186.842 80.4793H186.595C186.224 80.4793 185.915 80.1742 185.915 79.8025V76.7628Z" fill="#F04923"></path><path fill-rule="evenodd" clip-rule="evenodd" d="M191.423 79.8611C191.423 80.2328 191.728 80.5379 192.1 80.5379H192.346C192.718 80.5379 193.023 80.2328 193.023 79.8611V76.8214C193.023 76.4497 192.718 76.1406 192.346 76.1406H192.1C191.728 76.1406 191.423 76.4458 191.423 76.8214V79.8611Z" fill="white"></path></svg>